<?xml version="1.0" standalone="no"?>
<!DOCTYPE svg PUBLIC "-//W3C//DTD SVG 20010904//EN"
 "http://www.w3.org/TR/2001/REC-SVG-20010904/DTD/svg10.dtd">
<svg version="1.0" xmlns="http://www.w3.org/2000/svg"
 width="512.000000pt" height="512.000000pt" viewBox="0 0 512.000000 512.000000"
 preserveAspectRatio="xMidYMid meet">

<g transform="translate(0.000000,512.000000) scale(0.100000,-0.100000)"
fill="#000000" stroke="none">
<path d="M1777 4804 c-208 -37 -383 -129 -532 -279 -130 -129 -215 -277 -263
-454 -33 -127 -37 -342 -8 -466 89 -384 377 -672 761 -761 116 -27 330 -26
445 3 372 94 649 370 743 743 30 121 30 339 0 460 -87 343 -332 610 -660 719
-147 49 -333 63 -486 35z"/>
<path d="M3755 2911 c-62 -16 -106 -41 -156 -88 -92 -86 -118 -172 -119 -390
l0 -113 -60 0 c-136 0 -245 -43 -336 -134 -93 -93 -134 -199 -134 -346 l0 -70
1085 0 1085 0 0 70 c0 147 -41 253 -134 346 -93 92 -198 134 -337 134 l-59 0
0 113 c-1 218 -27 304 -119 390 -94 88 -106 91 -416 94 -148 1 -283 -2 -300
-6z m513 -303 c8 -8 12 -56 12 -150 l0 -138 -245 0 -245 0 0 138 c0 94 4 142
12 150 17 17 449 17 466 0z"/>
<path d="M1080 2515 c-8 -2 -49 -9 -90 -15 -407 -66 -765 -365 -916 -767 -66
-174 -67 -187 -71 -775 -4 -527 -4 -537 17 -577 13 -27 34 -48 60 -61 38 -20
57 -20 915 -20 481 0 875 2 875 5 0 3 -104 135 -230 293 -154 192 -232 297
-236 319 -3 17 27 279 69 595 l76 563 -38 220 -37 220 -189 1 c-105 1 -197 1
-205 -1z"/>
<path d="M1781 2503 c0 -10 10 -76 22 -148 l23 -130 124 0 124 0 23 130 c12
72 22 138 22 148 1 16 -14 17 -169 17 -155 0 -170 -1 -169 -17z"/>
<path d="M2426 2509 c-3 -8 -20 -108 -40 -224 l-35 -210 77 -572 c74 -557 76
-573 59 -608 -9 -19 -116 -159 -237 -310 -121 -151 -220 -277 -220 -280 0 -3
173 -5 385 -5 l385 0 -35 54 c-36 56 -66 124 -93 211 -24 77 -30 1333 -7 1448
32 160 101 282 224 400 l79 76 -46 11 c-26 6 -147 14 -269 17 -184 5 -223 3
-227 -8z"/>
<path d="M1822 1848 c-6 -40 -34 -249 -63 -464 l-52 -391 118 -146 c64 -81
121 -147 125 -147 4 0 61 66 125 147 l118 146 -52 391 c-29 215 -57 424 -63
464 l-10 72 -118 0 -118 0 -10 -72z"/>
<path d="M2950 1090 c0 -240 4 -398 11 -432 36 -171 175 -310 347 -347 73 -15
1380 -16 1454 0 171 36 310 175 347 347 7 34 11 187 11 432 l0 380 -1085 0
-1085 0 0 -380z"/>
</g>
</svg>
