<?xml version="1.0" standalone="no"?>
<!DOCTYPE svg PUBLIC "-//W3C//DTD SVG 20010904//EN"
 "http://www.w3.org/TR/2001/REC-SVG-20010904/DTD/svg10.dtd">
<svg version="1.0" xmlns="http://www.w3.org/2000/svg"
 width="512.000000pt" height="512.000000pt" viewBox="0 0 512.000000 512.000000"
 preserveAspectRatio="xMidYMid meet">

<g transform="translate(0.000000,512.000000) scale(0.100000,-0.100000)"
fill="#000000" stroke="none">
<path d="M2452 4420 c-288 -40 -543 -246 -642 -517 -133 -368 13 -770 353
-969 34 -20 102 -50 152 -67 86 -30 97 -32 245 -32 149 0 158 2 250 33 215 75
377 218 471 417 50 107 68 180 75 300 13 236 -66 437 -240 610 -79 79 -105 98
-196 142 -58 28 -134 58 -170 66 -85 20 -219 28 -298 17z"/>
<path d="M1044 3986 c-33 -8 -92 -29 -130 -47 -94 -45 -218 -168 -262 -259
-113 -235 -71 -500 108 -680 114 -113 253 -170 418 -170 156 0 287 54 399 164
l73 71 -45 90 c-105 213 -133 426 -90 691 7 42 7 42 -40 70 -125 73 -296 101
-431 70z"/>
<path d="M3835 3990 c-57 -12 -137 -44 -191 -75 -46 -27 -46 -28 -39 -69 43
-265 15 -476 -90 -691 l-44 -90 72 -71 c228 -224 589 -221 817 6 76 77 139
190 159 288 16 75 14 198 -4 267 -50 196 -207 359 -404 421 -56 18 -221 26
-276 14z"/>
<path d="M1000 2701 c-230 -51 -420 -179 -548 -370 -77 -114 -106 -192 -142
-372 -57 -286 -55 -306 31 -391 133 -130 412 -220 713 -230 l100 -3 42 295
c53 366 77 460 154 615 60 122 118 207 209 304 28 30 50 56 48 57 -1 1 -25 13
-54 28 -153 77 -383 105 -553 67z"/>
<path d="M2284 2706 c-160 -30 -269 -74 -398 -160 -198 -132 -346 -334 -411
-561 -15 -53 -49 -260 -85 -506 -67 -470 -67 -466 2 -532 74 -71 273 -153 463
-191 451 -90 1107 -80 1508 24 126 32 238 77 312 125 61 39 79 59 100 108 15
36 13 57 -45 461 -33 233 -67 449 -75 480 -77 294 -287 546 -563 673 -41 19
-118 46 -171 60 -88 24 -116 26 -331 29 -166 2 -256 -1 -306 -10z"/>
<path d="M3808 2710 c-73 -13 -157 -39 -230 -72 l-67 -30 71 -82 c134 -153
228 -327 273 -502 14 -55 45 -232 69 -394 l42 -295 100 3 c125 4 323 36 422
68 116 38 228 101 293 164 84 82 86 105 30 387 -17 82 -44 182 -60 223 -64
158 -210 329 -353 413 -172 102 -404 148 -590 117z"/>
</g>
</svg>
