<?xml version="1.0" standalone="no"?>
<!DOCTYPE svg PUBLIC "-//W3C//DTD SVG 20010904//EN"
 "http://www.w3.org/TR/2001/REC-SVG-20010904/DTD/svg10.dtd">
<svg version="1.0" xmlns="http://www.w3.org/2000/svg"
 width="512.000000pt" height="512.000000pt" viewBox="0 0 512.000000 512.000000"
 preserveAspectRatio="xMidYMid meet">

<g transform="translate(0.000000,512.000000) scale(0.100000,-0.100000)"
fill="#000000" stroke="none">
<path d="M2505 5109 c-16 -5 -570 -281 -1230 -612 -1158 -581 -1201 -604
-1230 -645 -26 -38 -30 -52 -30 -112 0 -60 4 -74 30 -112 28 -40 56 -56 457
-258 236 -118 428 -217 428 -220 0 -3 -192 -102 -428 -220 -401 -202 -429
-218 -457 -258 -26 -38 -30 -52 -30 -112 0 -60 4 -74 30 -112 28 -40 56 -56
457 -258 236 -118 428 -217 428 -220 0 -3 -192 -102 -428 -220 -401 -202 -429
-218 -457 -258 -26 -38 -30 -52 -30 -112 0 -60 4 -74 30 -112 29 -42 72 -64
1245 -652 1209 -607 1215 -610 1277 -610 l63 -1 1214 607 c1382 691 1269 623
1274 762 4 77 2 83 -27 123 -28 39 -65 60 -456 255 -234 117 -425 215 -425
218 0 3 191 101 424 217 495 248 479 236 484 367 4 77 2 83 -27 123 -28 39
-65 60 -456 255 -234 117 -425 215 -425 218 0 3 191 101 424 217 495 248 479
236 484 367 6 146 125 74 -1270 772 -1290 645 -1259 631 -1343 603z m1020
-891 c520 -260 945 -475 945 -478 0 -3 -427 -219 -950 -480 l-950 -475 -950
475 c-522 261 -950 477 -950 480 0 7 1882 949 1897 949 7 1 438 -212 958 -471z
m-1572 -1575 c541 -271 553 -277 614 -277 61 -1 66 1 622 279 l561 280 360
-180 c198 -99 360 -182 360 -185 0 -3 -427 -219 -950 -480 l-950 -475 -950
475 c-522 261 -950 477 -950 480 0 7 702 359 718 359 6 1 261 -124 565 -276z
m0 -1180 c541 -271 553 -277 614 -277 61 -1 66 1 622 279 l561 280 360 -180
c198 -99 360 -182 360 -185 0 -3 -427 -219 -950 -480 l-950 -475 -950 475
c-522 261 -950 477 -950 480 0 7 702 359 718 359 6 1 261 -124 565 -276z"/>
</g>
</svg>
